<?xml version="1.0" encoding="UTF-8" standalone="no"?>
<svg
   xmlns:dc="http://purl.org/dc/elements/1.1/"
   xmlns:cc="http://creativecommons.org/ns#"
   xmlns:rdf="http://www.w3.org/1999/02/22-rdf-syntax-ns#"
   xmlns:svg="http://www.w3.org/2000/svg"
   xmlns="http://www.w3.org/2000/svg"
   viewBox="0 0 377.94666 64.253334"
   height="64.253334"
   width="377.94666"
   xml:space="preserve"
   id="svg2"
   version="1.1"><metadata
     id="metadata8"><rdf:RDF><cc:Work
         rdf:about=""><dc:format>image/svg+xml</dc:format><dc:type
           rdf:resource="http://purl.org/dc/dcmitype/StillImage" /></cc:Work></rdf:RDF></metadata><defs
     id="defs6" /><g
     transform="matrix(1.3333333,0,0,-1.3333333,0,64.253333)"
     id="g10"><g
       transform="scale(0.1)"
       id="g12"><path
         id="path14"
         style="fill:#f04430;fill-opacity:1;fill-rule:nonzero;stroke:none"
         d="m 2750.67,304.621 c -45.39,0 -96.18,-57.039 -96.18,-83.519 0,-26.477 50.79,-83.516 96.18,-83.516 45.37,0 83.98,37.387 83.98,83.516 0,46.132 -38.61,83.519 -83.98,83.519 z M 2643.32,165.23 c 30.93,-30.933 30.93,-81.0073 0,-111.937 l -29.83,-30.0938 c -30.93,-30.92967 -81,-30.92967 -111.93,0 l -6.18,6.1719 c -30.93,30.9336 -30.93,81.0079 0,111.9379 l 1.67,1.644 c 13.7,13.727 30.55,23.945 48.87,30.555 39.74,14.269 49.12,31.012 49.19,47.594 -0.07,16.582 -9.45,33.324 -49.19,47.597 -18.32,6.606 -35.17,16.824 -48.87,30.551 l -1.67,1.645 c -30.93,30.929 -30.93,81.007 0,111.937 l 6.18,6.176 c 30.93,30.93 81,30.93 111.93,0 l 29.83,-30.094 c 30.93,-30.93 30.93,-81.008 0,-111.937 -15.45,-15.446 -23.19,-35.657 -23.21,-55.875 0.02,-20.219 7.76,-40.43 23.21,-55.872" /><path
         id="path16"
         style="fill:#011727;fill-opacity:1;fill-rule:evenodd;stroke:none"
         d="m 1881.86,386.586 c 0,0 -80.1,-220.328 -83.49,-231.598 -1.49,-5.14 -5.84,-7.718 -10.18,-7.738 -4.35,0.02 -8.7,2.598 -10.18,7.738 -3.4,11.27 -83.49,231.598 -83.49,231.598 h -90.96 L 1742.44,53.8477 h 91.5 L 1972.82,386.586 Z M 175.125,324.273 c -47.379,0 -79.8242,-29.457 -88.7852,-76.429 H 258.617 c -6.109,45.476 -36.113,76.429 -83.492,76.429 z m 1.766,72.633 c 97.609,0 163.312,-74.261 163.312,-176.758 0,-8.687 -0.543,-19.546 -2.305,-27.289 H 86.207 c 9.5,-47.375 41.133,-75.476 94.484,-75.476 38.692,0 72.223,9.773 97.747,36.109 L 317.266,95.5234 C 287.531,62.2656 237.031,43.5313 178.113,43.5313 73.582,43.5313 0,116.977 0,220.148 0,323.324 73.9883,396.906 176.891,396.906 Z m 381.597,0 c -90.008,0 -154.086,-59.734 -154.086,-142.273 V 53.8477 h 83.762 V 248.66 c 0,43.848 30.274,71.543 70.594,71.543 40.32,0 70.32,-27.969 70.32,-71.543 V 53.8477 h 83.766 V 253.816 c 0,83.219 -64.352,143.09 -154.356,143.09 z M 2165.89,117.52 c -55.39,0 -96.12,43.168 -96.12,103.851 0,60.684 40.73,102.902 96.12,102.902 55.38,0 96.52,-42.492 96.52,-102.902 0,-60.41 -40.32,-103.851 -96.52,-103.851 z m 100.71,223.82 0.02,-0.231 h -2.31 c -16.97,31.766 -57.43,55.797 -111.05,55.797 -96.52,0 -167.25,-73.176 -167.25,-176.758 0,-103.582 66.92,-176.6167 163.86,-176.6167 53.21,0 95.84,24.0273 114.44,60.2737 h 2.31 c -0.68,-7.7386 -1.22,-16.9691 -1.22,-31.7659 V 53.8477 h 76.02 V 386.586 h -76.02 v -14.797 c 0,-17.551 0.66,-24.656 1.2,-30.449 z M 1382.44,117.52 c -55.39,0 -96.12,43.168 -96.12,103.851 0,60.684 40.73,102.902 96.12,102.902 55.39,0 96.52,-42.492 96.52,-102.902 0,-60.41 -40.32,-103.851 -96.52,-103.851 z m 100.71,223.82 0.02,-0.231 h -2.31 c -16.97,31.766 -57.42,55.797 -111.05,55.797 -96.52,0 -167.25,-73.176 -167.25,-176.758 0,-103.582 66.93,-176.6167 163.86,-176.6167 53.22,0 95.84,24.0273 114.44,60.2737 h 2.31 c -0.68,-7.7386 -1.22,-16.9691 -1.22,-31.7659 V 53.8477 h 76.02 V 386.586 h -76.02 v -14.797 c 0,-17.551 0.66,-24.656 1.2,-30.449 z M 862.516,221.781 c 0,-60.957 40.867,-103.718 96.39,-103.718 56.334,0 96.794,43.031 96.794,103.718 0,60.684 -41.27,103.309 -96.794,103.309 -55.523,0 -96.39,-42.356 -96.39,-103.309 z m 191.694,127.203 c -0.82,5.43 -1.62,12.356 -1.62,30.411 v 102.496 h 82.26 V 53.8477 h -76.3 v 17.1054 c 0,14.3907 0.68,24.3008 1.36,31.3599 h -2.31 C 1036.15,64.5742 992.711,43.5313 941.938,43.5313 c -96.391,0 -163.454,73.0347 -163.454,177.1637 0,104.125 69.371,177.16 166.844,177.16 46.024,0 88.922,-18.46 106.302,-48.871 h 2.58" /></g></g></svg>