<?xml version="1.0" encoding="UTF-8" standalone="no"?>
<svg
   xmlns:dc="http://purl.org/dc/elements/1.1/"
   xmlns:cc="http://creativecommons.org/ns#"
   xmlns:rdf="http://www.w3.org/1999/02/22-rdf-syntax-ns#"
   xmlns:svg="http://www.w3.org/2000/svg"
   xmlns="http://www.w3.org/2000/svg"
   viewBox="0 0 377.95334 64.251999"
   height="64.251999"
   width="377.95334"
   xml:space="preserve"
   id="svg2"
   version="1.1"><metadata
     id="metadata8"><rdf:RDF><cc:Work
         rdf:about=""><dc:format>image/svg+xml</dc:format><dc:type
           rdf:resource="http://purl.org/dc/dcmitype/StillImage" /></cc:Work></rdf:RDF></metadata><defs
     id="defs6"><clipPath
       id="clipPath18"
       clipPathUnits="userSpaceOnUse"><path
         id="path16"
         d="M 0,48.189 H 283.465 V 0 H 0 Z" /></clipPath></defs><g
     transform="matrix(1.3333333,0,0,-1.3333333,0,64.252)"
     id="g10"><g
       id="g12"><g
         clip-path="url(#clipPath18)"
         id="g14"><g
           transform="translate(275.0666,30.4619)"
           id="g20"><path
             id="path22"
             style="fill:#ffffff;fill-opacity:1;fill-rule:nonzero;stroke:none"
             d="m 0,0 c -4.538,0 -9.617,-5.704 -9.617,-8.352 0,-2.648 5.079,-8.351 9.617,-8.351 4.538,0 8.398,3.738 8.398,8.351 C 8.398,-3.739 4.538,0 0,0 m -10.735,-13.939 c 3.093,-3.093 3.093,-8.101 0,-11.194 l -2.982,-3.009 c -3.093,-3.093 -8.101,-3.093 -11.194,0 l -0.618,0.617 c -3.093,3.093 -3.093,8.101 0,11.194 l 0.168,0.164 c 1.369,1.373 3.055,2.395 4.886,3.056 3.974,1.427 4.912,3.101 4.919,4.759 -0.007,1.659 -0.945,3.333 -4.919,4.76 -1.831,0.661 -3.517,1.683 -4.886,3.055 l -0.168,0.165 c -3.093,3.093 -3.093,8.1 0,11.193 l 0.618,0.618 c 3.093,3.093 8.101,3.093 11.194,0 l 2.982,-3.01 c 3.093,-3.093 3.093,-8.1 0,-11.193 -1.544,-1.545 -2.318,-3.566 -2.321,-5.588 0.003,-2.022 0.777,-4.043 2.321,-5.587" /></g><g
           transform="translate(188.1859,38.6587)"
           id="g24"><path
             id="path26"
             style="fill:#ffffff;fill-opacity:1;fill-rule:evenodd;stroke:none"
             d="m 0,0 c 0,0 -8.01,-22.033 -8.349,-23.16 -0.149,-0.514 -0.584,-0.772 -1.018,-0.774 -0.435,0.002 -0.869,0.26 -1.018,0.774 -0.34,1.127 -8.349,23.16 -8.349,23.16 h -9.096 l 13.888,-33.274 h 9.15 L 9.096,0 Z m -170.673,-6.231 c -4.738,0 -7.983,-2.946 -8.879,-7.643 h 17.228 c -0.611,4.548 -3.611,7.643 -8.349,7.643 m 0.176,7.263 c 9.761,0 16.332,-7.426 16.332,-17.676 0,-0.869 -0.055,-1.955 -0.231,-2.729 h -25.169 c 0.95,-4.737 4.113,-7.548 9.448,-7.548 3.869,0 7.223,0.978 9.775,3.612 l 3.882,-5.797 c -2.973,-3.326 -8.023,-5.2 -13.915,-5.2 -10.453,0 -17.811,7.345 -17.811,17.662 0,10.318 7.399,17.676 17.689,17.676 m 38.16,0 c -9.001,0 -15.409,-5.974 -15.409,-14.228 v -20.078 h 8.376 v 19.481 c 0,4.385 3.028,7.155 7.06,7.155 4.032,0 7.032,-2.797 7.032,-7.155 v -19.481 h 8.376 v 19.997 c 0,8.322 -6.435,14.309 -15.435,14.309 m 160.74,-27.939 c -5.539,0 -9.612,4.317 -9.612,10.385 0,6.069 4.073,10.291 9.612,10.291 5.538,0 9.652,-4.249 9.652,-10.291 0,-6.041 -4.032,-10.385 -9.652,-10.385 m 10.071,22.382 0.002,-0.023 h -0.231 c -1.697,3.177 -5.743,5.58 -11.105,5.58 -9.652,0 -16.725,-7.318 -16.725,-17.676 0,-10.358 6.692,-17.662 16.386,-17.662 5.321,0 9.584,2.403 11.444,6.028 h 0.231 c -0.068,-0.774 -0.122,-1.697 -0.122,-3.177 v -1.819 h 7.602 V 0 h -7.602 v -1.48 c 0,-1.755 0.066,-2.466 0.12,-3.045 m -88.416,-22.382 c -5.539,0 -9.612,4.317 -9.612,10.385 0,6.069 4.073,10.291 9.612,10.291 5.539,0 9.652,-4.249 9.652,-10.291 0,-6.041 -4.032,-10.385 -9.652,-10.385 m 10.071,22.382 0.002,-0.023 H -40.1 c -1.697,3.177 -5.742,5.58 -11.105,5.58 -9.652,0 -16.725,-7.318 -16.725,-17.676 0,-10.358 6.693,-17.662 16.386,-17.662 5.322,0 9.584,2.403 11.444,6.028 h 0.231 c -0.068,-0.774 -0.122,-1.697 -0.122,-3.177 v -1.819 h 7.602 V 0 h -7.602 v -1.48 c 0,-1.755 0.066,-2.466 0.12,-3.045 m -62.063,-11.956 c 0,-6.095 4.086,-10.372 9.639,-10.372 5.633,0 9.679,4.304 9.679,10.372 0,6.069 -4.127,10.331 -9.679,10.331 -5.553,0 -9.639,-4.235 -9.639,-10.331 m 19.169,12.721 c -0.082,0.543 -0.162,1.235 -0.162,3.041 L -82.928,9.53 h 8.227 v -42.804 h -7.63 v 1.711 c 0,1.439 0.068,2.43 0.136,3.136 h -0.231 c -2.145,-3.774 -6.489,-5.879 -11.566,-5.879 -9.639,0 -16.345,7.304 -16.345,17.717 0,10.412 6.937,17.716 16.684,17.716 4.602,0 8.892,-1.846 10.63,-4.887 z" /></g></g></g></g></svg>